<svg width="64" height="64" version="1.1" xmlns="http://www.w3.org/2000/svg" xmlns:xlink="http://www.w3.org/1999/xlink" viewBox="0 0 142.841 137.643"><g>  <path d="M134.622,145.559c-1.051-3.5-5.139-4.2-5.139-4.2s-16.613-3.269-18.316-4.2c-.329-.182-.689-.4-1.054-.645-1.534-1-3.23-2.452-3.734-3.794-.392-1.046-.383-4.563-.322-7.029-1.482-.831-3.068-1.7-3.213-1.7-.252,0-17.6,2.255-19.655,2.595,0,.071,0,.146,0,.218a25.242,25.242,0,0,1-.345,5.92c-.624,1.664-3.087,3.5-4.788,4.439s-18.315,4.2-18.315,4.2-4.089.7-5.14,4.2-4.359,11.689-3.854,11.912c17.172,7.563,71.172,7.563,87.727,0C138.979,157.241,135.673,149.064,134.622,145.559Z"        transform="translate(-23.449 -25.821)"        fill="#fbd2b4"></path>  <path d="M109.476,136.07a7.211,7.211,0,0,1-3.1-3.358c-.392-1.046-.383-4.563-.322-7.029-1.482-.831-3.068-1.7-3.213-1.7-.252,0-17.6.536-19.653.877,0,.07,0,1.864,0,1.936,1.823,3.876,15.2,10.2,26.284,9.278Z"        transform="translate(-23.449 -25.821)"        fill="#f9c59f"></path>  <path d="M129.955,83.1c-1.471-2.038-2.984-1.471-4.22-.191.582-3.611.956-6.221.976-6.8.645-17.562-18.264-27.71-31.783-27.674h-.14c-15.935-.043-31.522,10.119-30.877,27.674.023.636.4,3.725.979,7.909-1.349-1.919-3.267-3.486-5.12-.918-3.358,4.651,1.979,14.932,2.708,15.633C63.8,100,67.349,100,67.349,100V100c1.217,7.094,2.52,13.393,3.477,14.948,2.572,4.18,12.665,13.623,23.962,14.116a.678.678,0,0,0,.07.007c.022,0,.047,0,.07,0v-.012c11.3-.493,21.393-9.936,23.964-14.116.957-1.556,2.409-7.861,3.8-14.958,1.115-.057,3.549-.289,4.552-1.256C127.976,98.029,133.314,87.748,129.955,83.1Z"        transform="translate(-23.449 -25.821)"        fill="#fbd2b4"></path></g>
<g>
<linearGradient
  id="gradientId"
  x1="72.34"
  y1="94.276"
  x2="79.169"
  y2="94.276"
  gradientTransform="matrix(0.999, -0.039, 0.039, 0.999, 1.102, -0.852)"
  gradientUnits="userSpaceOnUse"
>
  <stop offset="0" stop-color="#335718"></stop>
  <stop offset="1" stop-color="#335718"></stop>
</linearGradient>
<g>  <path    fill="#ffffff"    d="M85.831,89.846a.825.825,0,0,1,0,1.128c-.907.969-2.976,2.848-5.384,2.848-2.437,0-4.269-2.044-5.03-3.061a.88.88,0,0,1,.036-1.1A7,7,0,0,1,80.447,87C82.855,87,84.923,88.876,85.831,89.846Z"    transform="translate(-23.449 -25.821)"  ></path>  <path    fill="gradientId"    d="M77.042,90.538A3.416,3.416,0,1,0,80.32,87.1,3.372,3.372,0,0,0,77.042,90.538Z"    transform="translate(-23.449 -25.821)"  ></path>  <path    fill="#1d1d1b"    d="M80.207,88.558A2.009,2.009,0,1,1,78.524,90.8,1.971,1.971,0,0,1,80.207,88.558Z"    transform="translate(-23.449 -25.821)"  ></path>  <path    fill="#ffffff"    d="M79.262,88.284a.983.983,0,1,1-.866,1.1A.993.993,0,0,1,79.262,88.284Z"    transform="translate(-23.449 -25.821)"  ></path>  <path    fill="#875026"    d="M105.736,92.973a1,1,0,0,1-.9-1.444,6.205,6.205,0,0,1,10.546-.287,1,1,0,0,1-1.728,1,4,4,0,0,0-3.467-1.8,3.907,3.907,0,0,0-3.559,1.969A1,1,0,0,1,105.736,92.973Z"    transform="translate(-23.449 -25.821)"  ></path></g>
</g> 
        
<g>
  <g>  <path d="M130.856,70.759a32.437,32.437,0,0,0-9.123-23.312,39.939,39.939,0,0,0-24.242-11.7c-5.764-.643-18.2,1.5-21.331,10.811-3.226.055-8.42,1.746-12.827,10.825-5.066,10.434-1.059,26.3,5.551,35.911-2.675-12.919-.975-22.989,1.564-29.738a14.982,14.982,0,0,0,7.584,6.113A25.886,25.886,0,0,1,76.16,57.718c4.473,12,17.954,17.17,26.842,17.74-8.721-4.736-12.341-13.125-12.923-16.57,6.318,9.945,19.5,12.5,19.5,12.5-6.11-4.525-6.919-16.2-6.307-16,2.973,9.016,12.473,13.508,13.162,14.167.76.728-1.877-7.144-1.194-6.35,6.248,7.26,9.127,17.262,6.361,30.088,6.224-9.826,6.645-21.14,4.543-30.117C127.153,63.962,129.8,68.435,130.856,70.759Z"        transform="translate(-23.449 -25.821)"        fill="#090806"></path></g>
  <path
    d="M84.709,84.234a1.028,1.028,0,0,1-.4-.081c-3.463-1.446-7.742-.8-9.064-.054a1.035,1.035,0,1,1-1.022-1.8c1.908-1.083,6.883-1.726,10.884-.056a1.036,1.036,0,0,1-.4,1.992Z"
    transform="translate(-23.449 -25.821)"
    fill="#090806"
  ></path>
  <path
    d="M105.459,84.234a1.036,1.036,0,0,1-.4-1.992c4-1.67,8.976-1.028,10.886.056a1.035,1.035,0,1,1-1.021,1.8c-1.323-.75-5.605-1.393-9.067.055A1.037,1.037,0,0,1,105.459,84.234Z"
    transform="translate(-23.449 -25.821)"
    fill="#090806"
  ></path>
</g>
            <g>  <path    fill="#7f8c8d"    d="M123.722,81.724c-.022,0-20.038-4.586-25.347,1.889a11.588,11.588,0,0,0-.647,2.076H91.9a11.546,11.546,0,0,0-.646-2.076c-5.31-6.475-25.325-1.884-25.346-1.889,0,0-.06,3.25.06,4.334.166,1.486,2.489,3.492,2.635,4.711.721,5.9,4.668,10.251,12.98,10.045,8.329-.433,10.275-6.462,10.619-10.255a16.138,16.138,0,0,0,.032-2.472,7.091,7.091,0,0,1,2.564-.462h.036a7.087,7.087,0,0,1,2.564.462,16.4,16.4,0,0,0,.033,2.472c.343,3.793,2.289,9.822,10.619,10.255,8.312.206,12.26-4.143,12.98-10.045.147-1.219,2.471-3.225,2.635-4.711C123.78,84.974,123.722,81.724,123.722,81.724ZM90.3,90.857c-.431,5.287-3.675,8.383-8.925,8.637-.532.028-1.05.031-1.542.013-8.271-.018-9.686-7.253-9.85-11.834a4.886,4.886,0,0,1,4.409-5.124c1.517-.149,3.225-.149,5.2-.149,6.181,0,8.871,1.476,9.588,2.657A10.512,10.512,0,0,1,90.3,90.857Zm19.488,8.65c-.492.018-1.01.015-1.543-.013-5.248-.254-8.492-3.35-8.922-8.637a10.486,10.486,0,0,1,1.119-5.8c.715-1.181,3.406-2.657,9.588-2.657,1.975,0,3.682,0,5.2.149a4.887,4.887,0,0,1,4.41,5.124C119.477,92.254,118.061,99.489,109.79,99.507Z"    transform="translate(-23.449 -25.821)"  ></path></g><g id="ae928e33-38f4-4e03-bca3-586351cb6598" data-name="Pink Jacket">  <path    d="M95.9,144.622s-12.667-3.3-18.322-6.674l9.309,21.61,18-.751,7.978-20.432C106.949,142,95.9,144.622,95.9,144.622Z"    transform="translate(-23.449 -25.821)" fill="#d35400"></path>  <path    d="M138.545,157.552c-6.051,2.76-17.109,4.52-29.539,5.26H80.8c-12.49-.74-23.689-2.5-29.97-5.26-.51-.22,2.8-8.4,3.851-11.91s5.139-4.2,5.139-4.2,15.73-3.1,18.14-4.129a.459.459,0,0,0,.071-.03l17.779,21.026,16.621-20.657c4.229,1.25,17.129,3.79,17.129,3.79s4.09.7,5.141,4.2S139.045,157.322,138.545,157.552Z"    transform="translate(-23.449 -25.821)" fill="#c0392b"></path></g><g>  <path    fill="#ef843b"    d="M99.744,101.563a.271.271,0,0,0,.1-.314.237.237,0,0,0-.268-.161,25.286,25.286,0,0,1-8.474.185.243.243,0,0,0-.26.173.272.272,0,0,0,.1.307,11.793,11.793,0,0,0,4.2,1.612C96.067,103.606,98.49,102.388,99.744,101.563Z"    transform="translate(-23.449 -25.821)"  ></path></g></svg>