<svg width="64" height="64" version="1.1" xmlns="http://www.w3.org/2000/svg" xmlns:xlink="http://www.w3.org/1999/xlink" viewBox="0 0 142.841 137.643"><g>  <path    data-name="Neck"    fill="#fddac5"    d="M51.969,156.337c-.235-.111-.024-.746.342-1.59.474-1.092,1.324-2.683,2.368-4.67a20.584,20.584,0,0,1,4.25-5.439c3.219-2.981,9.759-5.1,13.36-5.99a70.528,70.528,0,0,0,9.08-2.58c1.85-1.021,4.52-3.021,5.2-4.831.369-.97.41-4.929.38-7.44v-2c2.23-.38,10.97-1.06,11.24-1.06.16,0,1.88.95,3.49,1.85-.06,2.68-.07,7.51.35,8.65.55,1.459,2.4,3.04,4.06,4.13.03,0,.81.51,1.15.7,1.12.619,6.14,1.729,9.9,2.5,2.44.509,9.49,2.759,12.7,5.119a10.013,10.013,0,0,1,1.61,1.43,45.323,45.323,0,0,1,6.42,10.443C132.369,162.814,76.869,168.167,51.969,156.337Z"    transform="translate(-23.449 -25.821)"  ></path>  <path    data-name="Shadow"    fill="#fab083"    d="M106.406,135.556c-2.76-1.8-4.086-3.551-4.373-4.315-.426-1.139-.416-5.973-.35-8.655-1.611-.9-3.335-1.851-3.492-1.851-.275,0-9,1.309-11.232,1.68,0,.236-.007,1.766-.006,1.844C89.334,129.384,97.9,134.384,106.406,135.556Z"    transform="translate(-23.449 -25.821)"  ></path>  <path    data-name="Top"    fill="#fddac5"    d="M127.068,85.11a4.379,4.379,0,0,0-2.159-.314c.324-10.527-1.184-37.286-30.039-36.14C66.013,47.51,64.507,74.269,64.832,84.8a4.391,4.391,0,0,0-2.162.314c-3,1.278-2.988,5.745-1.228,9.979,1.539,3.7,3.906,7.639,6.481,7.718.513,1.984,1.009,3.762,1.41,5.143a17.153,17.153,0,0,0,4.5,7.6c4.577,4.423,10.99,7.48,15.53,9.259a15.12,15.12,0,0,0,11.019,0c4.541-1.779,10.956-4.837,15.534-9.261a17.164,17.164,0,0,0,4.5-7.6c.4-1.381.9-3.159,1.41-5.143,2.573-.08,4.94-4.019,6.478-7.718C130.057,90.855,130.064,86.388,127.068,85.11Z"    transform="translate(-23.449 -25.821)"  ></path></g>
<g>
<linearGradient
  id="gradientId"
  x1="72.34"
  y1="94.276"
  x2="79.169"
  y2="94.276"
  gradientTransform="matrix(0.999, -0.039, 0.039, 0.999, 1.102, -0.852)"
  gradientUnits="userSpaceOnUse"
>
  <stop offset="0" stop-color="#27465e"></stop>
  <stop offset="1" stop-color="#27465e"></stop>
</linearGradient>
<g>  <path    fill="#ffffff"    d="M85.831,89.846a.825.825,0,0,1,0,1.128c-.907.969-2.976,2.848-5.384,2.848-2.437,0-4.269-2.044-5.03-3.061a.88.88,0,0,1,.036-1.1A7,7,0,0,1,80.447,87C82.855,87,84.923,88.876,85.831,89.846Z"    transform="translate(-23.449 -25.821)"  ></path>  <path    fill="gradientId"    d="M77.042,90.538A3.416,3.416,0,1,0,80.32,87.1,3.372,3.372,0,0,0,77.042,90.538Z"    transform="translate(-23.449 -25.821)"  ></path>  <path    fill="#1d1d1b"    d="M80.207,88.558A2.009,2.009,0,1,1,78.524,90.8,1.971,1.971,0,0,1,80.207,88.558Z"    transform="translate(-23.449 -25.821)"  ></path>  <path    fill="#ffffff"    d="M79.262,88.284a.983.983,0,1,1-.866,1.1A.993.993,0,0,1,79.262,88.284Z"    transform="translate(-23.449 -25.821)"  ></path>  <path    fill="#875026"    d="M105.736,92.973a1,1,0,0,1-.9-1.444,6.205,6.205,0,0,1,10.546-.287,1,1,0,0,1-1.728,1,4,4,0,0,0-3.467-1.8,3.907,3.907,0,0,0-3.559,1.969A1,1,0,0,1,105.736,92.973Z"    transform="translate(-23.449 -25.821)"  ></path></g>
</g> 
        
<g>
  <g data-name="Hair__TypeA">  <path    data-name="Secondary"    fill="#070605"    d="M56.576,141.63c1.2.709,2.41,1.367,3.619,2,3.459-2.405,8.842-4.121,11.985-4.9a70.258,70.258,0,0,0,9.08-2.58c1.851-1.021,4.52-3.021,5.2-4.83.348-.913.4-4.468.384-6.977h0V124.3c0-.144,0-.284,0-.42v-.263a44.966,44.966,0,0,1-12.9-8.157,17.143,17.143,0,0,1-4.494-7.6c-.4-1.381-.9-3.16-1.411-5.143-2.574-.08-4.941-4.019-6.48-7.719-1.76-4.234-1.768-8.7,1.228-9.978a4.4,4.4,0,0,1,2.161-.315c-.325-10.527,1.181-37.285,30.039-36.138,28.854-1.147,30.362,25.611,30.038,36.138a4.4,4.4,0,0,1,2.16.315c3,1.277,2.988,5.744,1.226,9.978-1.538,3.7-3.9,7.639-6.478,7.719-.514,1.983-1.01,3.762-1.41,5.143a17.173,17.173,0,0,1-4.5,7.6c-4.238,4.095-10.032,7.006-14.474,8.827-.005.515-.007,1.056-.005,1.6.007,1.275.037,2.571.111,3.6a7.933,7.933,0,0,0,.272,1.83c.287.764,1.613,2.518,4.373,4.315.264.165.629.395.834.511,1.119.62,6.139,1.729,9.9,2.5,2.442.51,9.491,2.76,12.7,5.12a11.189,11.189,0,0,1,1.118.941,31,31,0,0,0,4.5-3.336c5.213-4.728,9.455-11.24,9.742-18.441-7.268,2.824-15.49-3.942-13.82-18.7.949-8.39,2.142-16.834,2.25-25.283.082-6.588-1.071-17.644-6.624-24.758-7.515-9.628-20.846-14.513-32.481-14.513S70.9,44.767,64.326,55.058a51.32,51.32,0,0,0-8,23.9c-.523,8.432.661,16.989,2.246,25.283,3,15.708-8.208,19.614-12.66,18.7C46.2,130.14,50.516,138.054,56.576,141.63Z"    transform="translate(-23.449 -25.821)"  ></path>  <path    data-name="Primary"    fill="#090806"    d="M125.862,61.544a13.322,13.322,0,0,0-10.036-7.164c-7.765-14.459-29.954-10.933-36.7-7.1C66.468,54.48,55.076,71.763,66.4,97.511c.506,1.15,1.008,2.17.832.063-.462-5.623-.484-8.506,1.215-14.694,5.223-19.019,24.315-12,33.241-26.5-1.033,7.666-12.647,12.879-15.125,14.666,6.771-1.3,16.389-5.006,17.927-7.334.674-1.019-1.668,5.494-6.335,8,6.6-1.07,11.092-3.56,13.911-6.527,8.636,9.2,13.615,21.764,11.308,34.037a.338.338,0,0,0,.639.2A56.452,56.452,0,0,0,129,80.1C129.47,73.759,128.806,67.163,125.862,61.544Z"    transform="translate(-23.449 -25.821)"  ></path></g>
  <path
    d="M84.709,84.234a1.028,1.028,0,0,1-.4-.081c-3.463-1.446-7.742-.8-9.064-.054a1.035,1.035,0,1,1-1.022-1.8c1.908-1.083,6.883-1.726,10.884-.056a1.036,1.036,0,0,1-.4,1.992Z"
    transform="translate(-23.449 -25.821)"
    fill="#090806"
  ></path>
  <path
    d="M105.459,84.234a1.036,1.036,0,0,1-.4-1.992c4-1.67,8.976-1.028,10.886.056a1.035,1.035,0,1,1-1.021,1.8c-1.323-.75-5.605-1.393-9.067.055A1.037,1.037,0,0,1,105.459,84.234Z"
    transform="translate(-23.449 -25.821)"
    fill="#090806"
  ></path>
</g>
            <g>  <path    fill="#16a085"    d="M120.105,81.4c-2.6-.45-11.543-1.456-17.243-.407-5.544,1.022-5,2.361-4.943,2.87a6.209,6.209,0,0,0-6,0c.056-.509.591-1.848-4.954-2.87-5.7-1.049-14.715-.043-17.315.407A13.731,13.731,0,0,0,65.829,82.5v2.85a1.664,1.664,0,0,1,1.849.6c.674.842.86,1.575,1.669,1.877a21.623,21.623,0,0,0,.885,6.772,7.173,7.173,0,0,0,5.257,4.939,15.924,15.924,0,0,0,4.238.545,14.9,14.9,0,0,0,4.337-.6,8.661,8.661,0,0,0,5.7-6.2,21.768,21.768,0,0,0,.92-7.226.6.6,0,0,0,.617-.186h0l.026,0a1.126,1.126,0,0,0,.124-.132,5.538,5.538,0,0,1,6.935,0c.036.049,0,.094.039.132l-.07,0h0a.768.768,0,0,0,.714.186,22.091,22.091,0,0,0,.981,7.226,8.681,8.681,0,0,0,5.717,6.2,14.95,14.95,0,0,0,4.345.6,15.936,15.936,0,0,0,4.239-.545A7.168,7.168,0,0,0,119.6,94.6a21.587,21.587,0,0,0,.874-6.772c.808-.3.923-1.035,1.6-1.877a1.526,1.526,0,0,1,1.751-.6V82.5A12.154,12.154,0,0,0,120.105,81.4ZM68.736,84.014c-.938,0-1.7-.146-1.7-.327s.76-.326,1.7-.326,1.7.146,1.7.326S69.674,84.014,68.736,84.014Zm20.451,9.105a8.08,8.08,0,0,1-5.3,5.8,15.709,15.709,0,0,1-8.228.048A6.541,6.541,0,0,1,70.81,94.4a21.458,21.458,0,0,1-.822-7.067c.189-1.09.753-3.315,2.276-4.132,2.05-1.1,6.456-1.8,10.856-1.05s6.1,1.85,6.8,3.15c.025.046.051.091.078.133C90.333,86.653,90.123,89.866,89.187,93.119ZM119.039,94.4a6.54,6.54,0,0,1-4.847,4.561,15.712,15.712,0,0,1-8.229-.048,8.077,8.077,0,0,1-5.3-5.8c-.937-3.253-1.146-6.466-.813-7.683.026-.042.052-.087.077-.133.7-1.3,2.4-2.4,6.8-3.15s8.8-.05,10.855,1.05c1.524.817,2.087,3.042,2.276,4.132A21.432,21.432,0,0,1,119.039,94.4Zm2.075-10.388c-.938,0-1.7-.146-1.7-.327s.76-.326,1.7-.326,1.7.146,1.7.326S122.052,84.014,121.114,84.014Z"    transform="translate(-23.449 -25.821)"  ></path></g><g>  <path    d="M137.7,155.747c-5.5,7.25-61,12.61-85.9.78-.231-.11-.021-.75.339-1.59.481-1.09,1.331-2.69,2.371-4.67a20.59,20.59,0,0,1,4.25-5.44c3.219-2.98,9.759-5.1,13.36-5.99a87.882,87.882,0,0,0,8.79-2.441c4.319,2.58,8.279,4.471,12.96,4.471,4.519,0,8.88-1.981,13.25-4.59,1.2.63,6.14,1.72,9.85,2.481,2.44.509,9.489,2.759,12.7,5.119a10,10,0,0,1,1.609,1.429A45.356,45.356,0,0,1,137.7,155.747Z"    transform="translate(-23.449 -25.821)"    fill="#2ecc71"  ></path>  <polygon    points="67.69 113.531 73.437 113.531 77.892 119.237 71.591 136.565 63.457 119.237 67.69 113.531"    fill="#e74c3c"  ></polygon>  <path    d="M84.789,130.6s4.923,6.083,9.632,8.63c-1.231.91-5.9,5.336-7.493,9.615-2.551-2.353-8.574-9.88-8.574-11.252C79.139,135.043,83.024,131.581,84.789,130.6Z"    transform="translate(-23.449 -25.821)"    fill="#fff"  ></path>  <path    d="M104.365,130.6s-4.923,6.083-9.632,8.63c.394.589,4.868,3.993,7.493,9.615,2.551-2.353,8.574-9.88,8.574-11.252C110.016,135.043,106.13,131.581,104.365,130.6Z"    transform="translate(-23.449 -25.821)"    fill="#fff"  ></path></g><g>  <path    d="M66.758,92.468c.18,1.871.749,3.351-1.24,3.52S62.83,94.775,62.65,92.9s.236-3.523,2.221-3.69S66.581,90.6,66.758,92.468Z"    transform="translate(-23.449 -25.821)"    fill="#2c3e50"  ></path>  <path    d="M123.444,92.468c-.179,1.871-.749,3.351,1.24,3.52s2.69-1.213,2.869-3.085-.236-3.523-2.222-3.69S123.623,90.6,123.444,92.468Z"    transform="translate(-23.449 -25.821)"    fill="#2c3e50"  ></path>  <path    d="M95.144,163.351h-.991v-9.435c-.005-4.948-4.21-8.315-9.534-12.577-4.45-3.562-9.494-7.6-13.4-13.6-7.608-11.71-7.363-22.561-6.46-32.671l.987.087c-.887,9.938-1.13,20.6,6.305,32.043,3.815,5.871,8.792,9.855,13.184,13.371,5.313,4.252,9.9,7.926,9.905,13.35Z"    transform="translate(-23.449 -25.821)"    fill="#2c3e50"  ></path>  <path    d="M96.166,163.351h-.991v-9.435c0-5.426,4.591-9.1,9.9-13.352,4.393-3.515,9.37-7.5,13.185-13.37,7.429-11.436,7.188-22.1,6.306-32.043l.987-.087c.9,10.115,1.14,20.969-6.461,32.67-3.9,6.005-8.946,10.042-13.4,13.6-5.324,4.263-9.53,7.629-9.533,12.578Z"    transform="translate(-23.449 -25.821)"    fill="#2c3e50"  ></path></g><g>  <path    fill="#ef843b"    d="M99.744,101.563a.271.271,0,0,0,.1-.314.237.237,0,0,0-.268-.161,25.286,25.286,0,0,1-8.474.185.243.243,0,0,0-.26.173.272.272,0,0,0,.1.307,11.793,11.793,0,0,0,4.2,1.612C96.067,103.606,98.49,102.388,99.744,101.563Z"    transform="translate(-23.449 -25.821)"  ></path></g></svg>