<svg width="64" height="64" version="1.1" xmlns="http://www.w3.org/2000/svg" xmlns:xlink="http://www.w3.org/1999/xlink" viewBox="0 0 142.841 137.643"><g>  <path    data-name="Neck"    fill="#a96c4f"    d="M51.969,156.337c-.235-.111-.024-.746.342-1.59.474-1.092,1.324-2.683,2.368-4.67a20.584,20.584,0,0,1,4.25-5.439c3.219-2.981,9.759-5.1,13.36-5.99a70.528,70.528,0,0,0,9.08-2.58c1.85-1.021,4.52-3.021,5.2-4.831.369-.97.41-4.929.38-7.44v-2c2.23-.38,10.97-1.06,11.24-1.06.16,0,1.88.95,3.49,1.85-.06,2.68-.07,7.51.35,8.65.55,1.459,2.4,3.04,4.06,4.13.03,0,.81.51,1.15.7,1.12.619,6.14,1.729,9.9,2.5,2.44.509,9.49,2.759,12.7,5.119a10.013,10.013,0,0,1,1.61,1.43,45.323,45.323,0,0,1,6.42,10.443C132.369,162.814,76.869,168.167,51.969,156.337Z"    transform="translate(-23.449 -25.821)"  ></path>  <path    data-name="Shadow"    fill="#8f5b43"    d="M106.406,135.556c-2.76-1.8-4.086-3.551-4.373-4.315-.426-1.139-.416-5.973-.35-8.655-1.611-.9-3.335-1.851-3.492-1.851-.275,0-9,1.309-11.232,1.68,0,.236-.007,1.766-.006,1.844C89.334,129.384,97.9,134.384,106.406,135.556Z"    transform="translate(-23.449 -25.821)"  ></path>  <path    data-name="Top"    fill="#a96c4f"    d="M127.068,85.11a4.379,4.379,0,0,0-2.159-.314c.324-10.527-1.184-37.286-30.039-36.14C66.013,47.51,64.507,74.269,64.832,84.8a4.391,4.391,0,0,0-2.162.314c-3,1.278-2.988,5.745-1.228,9.979,1.539,3.7,3.906,7.639,6.481,7.718.513,1.984,1.009,3.762,1.41,5.143a17.153,17.153,0,0,0,4.5,7.6c4.577,4.423,10.99,7.48,15.53,9.259a15.12,15.12,0,0,0,11.019,0c4.541-1.779,10.956-4.837,15.534-9.261a17.164,17.164,0,0,0,4.5-7.6c.4-1.381.9-3.159,1.41-5.143,2.573-.08,4.94-4.019,6.478-7.718C130.057,90.855,130.064,86.388,127.068,85.11Z"    transform="translate(-23.449 -25.821)"  ></path></g>
<g>
<linearGradient
  id="gradientId"
  x1="72.34"
  y1="94.276"
  x2="79.169"
  y2="94.276"
  gradientTransform="matrix(0.999, -0.039, 0.039, 0.999, 1.102, -0.852)"
  gradientUnits="userSpaceOnUse"
>
  <stop offset="0" stop-color="#859bac"></stop>
  <stop offset="1" stop-color="#859bac"></stop>
</linearGradient>
<g>  <path    fill="#ffffff"    d="M85.831,89.846a.825.825,0,0,1,0,1.128c-.907.969-2.976,2.848-5.384,2.848-2.437,0-4.269-2.044-5.03-3.061a.88.88,0,0,1,.036-1.1A7,7,0,0,1,80.447,87C82.855,87,84.923,88.876,85.831,89.846Z"    transform="translate(-23.449 -25.821)"  ></path>  <path    fill="gradientId"    d="M77.042,90.538A3.416,3.416,0,1,0,80.32,87.1,3.372,3.372,0,0,0,77.042,90.538Z"    transform="translate(-23.449 -25.821)"  ></path>  <path    fill="#1d1d1b"    d="M80.207,88.558A2.009,2.009,0,1,1,78.524,90.8,1.971,1.971,0,0,1,80.207,88.558Z"    transform="translate(-23.449 -25.821)"  ></path>  <path    fill="#ffffff"    d="M79.262,88.284a.983.983,0,1,1-.866,1.1A.993.993,0,0,1,79.262,88.284Z"    transform="translate(-23.449 -25.821)"  ></path>  <path    fill="#ffffff"    d="M115.374,89.882a.827.827,0,0,1,0,1.13c-.907.969-2.976,2.848-5.384,2.848-2.437,0-4.269-2.045-5.03-3.062A.881.881,0,0,1,105,89.7a7,7,0,0,1,4.994-2.665C112.4,87.034,114.466,88.912,115.374,89.882Z"    transform="translate(-23.449 -25.821)"  ></path>  <path    fill="gradientId"    d="M106.585,90.575a3.416,3.416,0,1,0,3.278-3.434A3.372,3.372,0,0,0,106.585,90.575Z"    transform="translate(-23.449 -25.821)"  ></path>  <path    fill="#1d1d1b"    d="M109.75,88.594a2.01,2.01,0,1,1-1.684,2.237A1.974,1.974,0,0,1,109.75,88.594Z"    transform="translate(-23.449 -25.821)"  ></path>  <path    fill="#ffffff"    d="M108.805,88.321a.983.983,0,1,1-.866,1.1A.992.992,0,0,1,108.805,88.321Z"    transform="translate(-23.449 -25.821)"  ></path></g>
</g> 
        
<g>
  <g data-name="Hair__TypeA">  <path    data-name="Secondary"    fill="#423835"    d="M56.576,141.63c1.2.709,2.41,1.367,3.619,2,3.459-2.405,8.842-4.121,11.985-4.9a70.258,70.258,0,0,0,9.08-2.58c1.851-1.021,4.52-3.021,5.2-4.83.348-.913.4-4.468.384-6.977h0V124.3c0-.144,0-.284,0-.42v-.263a44.966,44.966,0,0,1-12.9-8.157,17.143,17.143,0,0,1-4.494-7.6c-.4-1.381-.9-3.16-1.411-5.143-2.574-.08-4.941-4.019-6.48-7.719-1.76-4.234-1.768-8.7,1.228-9.978a4.4,4.4,0,0,1,2.161-.315c-.325-10.527,1.181-37.285,30.039-36.138,28.854-1.147,30.362,25.611,30.038,36.138a4.4,4.4,0,0,1,2.16.315c3,1.277,2.988,5.744,1.226,9.978-1.538,3.7-3.9,7.639-6.478,7.719-.514,1.983-1.01,3.762-1.41,5.143a17.173,17.173,0,0,1-4.5,7.6c-4.238,4.095-10.032,7.006-14.474,8.827-.005.515-.007,1.056-.005,1.6.007,1.275.037,2.571.111,3.6a7.933,7.933,0,0,0,.272,1.83c.287.764,1.613,2.518,4.373,4.315.264.165.629.395.834.511,1.119.62,6.139,1.729,9.9,2.5,2.442.51,9.491,2.76,12.7,5.12a11.189,11.189,0,0,1,1.118.941,31,31,0,0,0,4.5-3.336c5.213-4.728,9.455-11.24,9.742-18.441-7.268,2.824-15.49-3.942-13.82-18.7.949-8.39,2.142-16.834,2.25-25.283.082-6.588-1.071-17.644-6.624-24.758-7.515-9.628-20.846-14.513-32.481-14.513S70.9,44.767,64.326,55.058a51.32,51.32,0,0,0-8,23.9c-.523,8.432.661,16.989,2.246,25.283,3,15.708-8.208,19.614-12.66,18.7C46.2,130.14,50.516,138.054,56.576,141.63Z"    transform="translate(-23.449 -25.821)"  ></path>  <path    data-name="Primary"    fill="#4e433f"    d="M125.862,61.544a13.322,13.322,0,0,0-10.036-7.164c-7.765-14.459-29.954-10.933-36.7-7.1C66.468,54.48,55.076,71.763,66.4,97.511c.506,1.15,1.008,2.17.832.063-.462-5.623-.484-8.506,1.215-14.694,5.223-19.019,24.315-12,33.241-26.5-1.033,7.666-12.647,12.879-15.125,14.666,6.771-1.3,16.389-5.006,17.927-7.334.674-1.019-1.668,5.494-6.335,8,6.6-1.07,11.092-3.56,13.911-6.527,8.636,9.2,13.615,21.764,11.308,34.037a.338.338,0,0,0,.639.2A56.452,56.452,0,0,0,129,80.1C129.47,73.759,128.806,67.163,125.862,61.544Z"    transform="translate(-23.449 -25.821)"  ></path></g>
  <path
    d="M84.709,84.234a1.028,1.028,0,0,1-.4-.081c-3.463-1.446-7.742-.8-9.064-.054a1.035,1.035,0,1,1-1.022-1.8c1.908-1.083,6.883-1.726,10.884-.056a1.036,1.036,0,0,1-.4,1.992Z"
    transform="translate(-23.449 -25.821)"
    fill="#4e433f"
  ></path>
  <path
    d="M105.459,84.234a1.036,1.036,0,0,1-.4-1.992c4-1.67,8.976-1.028,10.886.056a1.035,1.035,0,1,1-1.021,1.8c-1.323-.75-5.605-1.393-9.067.055A1.037,1.037,0,0,1,105.459,84.234Z"
    transform="translate(-23.449 -25.821)"
    fill="#4e433f"
  ></path>
</g>
            <g>  <path    d="M131.44,144.992a9.98,9.98,0,0,0-1.611-1.43,21.98,21.98,0,0,0-7.432-3.542c-12.369,11.568-60.615,12.566-67.873,10.207-.975,1.853-1.772,3.356-2.223,4.4-.365.844-.576,1.479-.341,1.59,24.9,11.83,80.4,6.477,85.9-.777A45.323,45.323,0,0,0,131.44,144.992Z"    transform="translate(-23.449 -25.821)"    fill="#7f8c8d"  ></path></g><g>  <path    fill="#ef843b"    d="M99.744,101.563a.271.271,0,0,0,.1-.314.237.237,0,0,0-.268-.161,25.286,25.286,0,0,1-8.474.185.243.243,0,0,0-.26.173.272.272,0,0,0,.1.307,11.793,11.793,0,0,0,4.2,1.612C96.067,103.606,98.49,102.388,99.744,101.563Z"    transform="translate(-23.449 -25.821)"  ></path></g></svg>