<svg width="64" height="64" version="1.1" xmlns="http://www.w3.org/2000/svg" xmlns:xlink="http://www.w3.org/1999/xlink" viewBox="0 0 142.841 137.643"><g>  <path d="M134.622,145.559c-1.051-3.5-5.139-4.2-5.139-4.2s-16.613-3.269-18.316-4.2c-.329-.182-.689-.4-1.054-.645-1.534-1-3.23-2.452-3.734-3.794-.392-1.046-.383-4.563-.322-7.029-1.482-.831-3.068-1.7-3.213-1.7-.252,0-17.6,2.255-19.655,2.595,0,.071,0,.146,0,.218a25.242,25.242,0,0,1-.345,5.92c-.624,1.664-3.087,3.5-4.788,4.439s-18.315,4.2-18.315,4.2-4.089.7-5.14,4.2-4.359,11.689-3.854,11.912c17.172,7.563,71.172,7.563,87.727,0C138.979,157.241,135.673,149.064,134.622,145.559Z"        transform="translate(-23.449 -25.821)"        fill="#fddac5"></path>  <path d="M109.476,136.07a7.211,7.211,0,0,1-3.1-3.358c-.392-1.046-.383-4.563-.322-7.029-1.482-.831-3.068-1.7-3.213-1.7-.252,0-17.6.536-19.653.877,0,.07,0,1.864,0,1.936,1.823,3.876,15.2,10.2,26.284,9.278Z"        transform="translate(-23.449 -25.821)"        fill="#fcccaf"></path>  <path d="M129.955,83.1c-1.471-2.038-2.984-1.471-4.22-.191.582-3.611.956-6.221.976-6.8.645-17.562-18.264-27.71-31.783-27.674h-.14c-15.935-.043-31.522,10.119-30.877,27.674.023.636.4,3.725.979,7.909-1.349-1.919-3.267-3.486-5.12-.918-3.358,4.651,1.979,14.932,2.708,15.633C63.8,100,67.349,100,67.349,100V100c1.217,7.094,2.52,13.393,3.477,14.948,2.572,4.18,12.665,13.623,23.962,14.116a.678.678,0,0,0,.07.007c.022,0,.047,0,.07,0v-.012c11.3-.493,21.393-9.936,23.964-14.116.957-1.556,2.409-7.861,3.8-14.958,1.115-.057,3.549-.289,4.552-1.256C127.976,98.029,133.314,87.748,129.955,83.1Z"        transform="translate(-23.449 -25.821)"        fill="#fddac5"></path></g>
<g>
<linearGradient
  id="gradientId"
  x1="72.34"
  y1="94.276"
  x2="79.169"
  y2="94.276"
  gradientTransform="matrix(0.999, -0.039, 0.039, 0.999, 1.102, -0.852)"
  gradientUnits="userSpaceOnUse"
>
  <stop offset="0" stop-color="#27465e"></stop>
  <stop offset="1" stop-color="#27465e"></stop>
</linearGradient>
<g>  <path    fill="#ffffff"    d="M85.831,89.846a.825.825,0,0,1,0,1.128c-.907.969-2.976,2.848-5.384,2.848-2.437,0-4.269-2.044-5.03-3.061a.88.88,0,0,1,.036-1.1A7,7,0,0,1,80.447,87C82.855,87,84.923,88.876,85.831,89.846Z"    transform="translate(-23.449 -25.821)"  ></path>  <path    fill="gradientId"    d="M77.042,90.538A3.416,3.416,0,1,0,80.32,87.1,3.372,3.372,0,0,0,77.042,90.538Z"    transform="translate(-23.449 -25.821)"  ></path>  <path    fill="#1d1d1b"    d="M80.207,88.558A2.009,2.009,0,1,1,78.524,90.8,1.971,1.971,0,0,1,80.207,88.558Z"    transform="translate(-23.449 -25.821)"  ></path>  <path    fill="#ffffff"    d="M79.262,88.284a.983.983,0,1,1-.866,1.1A.993.993,0,0,1,79.262,88.284Z"    transform="translate(-23.449 -25.821)"  ></path>  <path    fill="#875026"    d="M105.736,92.973a1,1,0,0,1-.9-1.444,6.205,6.205,0,0,1,10.546-.287,1,1,0,0,1-1.728,1,4,4,0,0,0-3.467-1.8,3.907,3.907,0,0,0-3.559,1.969A1,1,0,0,1,105.736,92.973Z"    transform="translate(-23.449 -25.821)"  ></path></g>
</g> 
        
<g>
  
  <path
    d="M84.709,84.234a1.028,1.028,0,0,1-.4-.081c-3.463-1.446-7.742-.8-9.064-.054a1.035,1.035,0,1,1-1.022-1.8c1.908-1.083,6.883-1.726,10.884-.056a1.036,1.036,0,0,1-.4,1.992Z"
    transform="translate(-23.449 -25.821)"
    fill="#090806"
  ></path>
  <path
    d="M105.459,84.234a1.036,1.036,0,0,1-.4-1.992c4-1.67,8.976-1.028,10.886.056a1.035,1.035,0,1,1-1.021,1.8c-1.323-.75-5.605-1.393-9.067.055A1.037,1.037,0,0,1,105.459,84.234Z"
    transform="translate(-23.449 -25.821)"
    fill="#090806"
  ></path>
</g>
            <g>  <path    fill="#16a085"    d="M120.105,81.4c-2.6-.45-11.543-1.456-17.243-.407-5.544,1.022-5,2.361-4.943,2.87a6.209,6.209,0,0,0-6,0c.056-.509.591-1.848-4.954-2.87-5.7-1.049-14.715-.043-17.315.407A13.731,13.731,0,0,0,65.829,82.5v2.85a1.664,1.664,0,0,1,1.849.6c.674.842.86,1.575,1.669,1.877a21.623,21.623,0,0,0,.885,6.772,7.173,7.173,0,0,0,5.257,4.939,15.924,15.924,0,0,0,4.238.545,14.9,14.9,0,0,0,4.337-.6,8.661,8.661,0,0,0,5.7-6.2,21.768,21.768,0,0,0,.92-7.226.6.6,0,0,0,.617-.186h0l.026,0a1.126,1.126,0,0,0,.124-.132,5.538,5.538,0,0,1,6.935,0c.036.049,0,.094.039.132l-.07,0h0a.768.768,0,0,0,.714.186,22.091,22.091,0,0,0,.981,7.226,8.681,8.681,0,0,0,5.717,6.2,14.95,14.95,0,0,0,4.345.6,15.936,15.936,0,0,0,4.239-.545A7.168,7.168,0,0,0,119.6,94.6a21.587,21.587,0,0,0,.874-6.772c.808-.3.923-1.035,1.6-1.877a1.526,1.526,0,0,1,1.751-.6V82.5A12.154,12.154,0,0,0,120.105,81.4ZM68.736,84.014c-.938,0-1.7-.146-1.7-.327s.76-.326,1.7-.326,1.7.146,1.7.326S69.674,84.014,68.736,84.014Zm20.451,9.105a8.08,8.08,0,0,1-5.3,5.8,15.709,15.709,0,0,1-8.228.048A6.541,6.541,0,0,1,70.81,94.4a21.458,21.458,0,0,1-.822-7.067c.189-1.09.753-3.315,2.276-4.132,2.05-1.1,6.456-1.8,10.856-1.05s6.1,1.85,6.8,3.15c.025.046.051.091.078.133C90.333,86.653,90.123,89.866,89.187,93.119ZM119.039,94.4a6.54,6.54,0,0,1-4.847,4.561,15.712,15.712,0,0,1-8.229-.048,8.077,8.077,0,0,1-5.3-5.8c-.937-3.253-1.146-6.466-.813-7.683.026-.042.052-.087.077-.133.7-1.3,2.4-2.4,6.8-3.15s8.8-.05,10.855,1.05c1.524.817,2.087,3.042,2.276,4.132A21.432,21.432,0,0,1,119.039,94.4Zm2.075-10.388c-.938,0-1.7-.146-1.7-.327s.76-.326,1.7-.326,1.7.146,1.7.326S122.052,84.014,121.114,84.014Z"    transform="translate(-23.449 -25.821)"  ></path></g><g id="f511194a-89ff-4d5f-beeb-d361e69a8096" data-name="Blue Pullover">  <path    d="M138.573,157.351c-6.051,2.76-17.11,4.52-29.539,5.26-2.5.15-5.05.26-7.63.32-4.1.119-8.26.119-12.37.02-2.781-.06-5.521-.18-8.21-.34-12.491-.74-23.691-2.5-29.971-5.26-.51-.221,2.8-8.4,3.85-11.91s5.14-4.2,5.14-4.2,10.16-2.01,15.41-3.32c4.731,3.36,14.311,9.44,19.36,9.44,4.81,0,13.291-6.44,17.75-9.94l.09.03c.63.19,1.46.4,2.41.631,5.4,1.319,14.719,3.159,14.719,3.159s4.09.7,5.141,4.2S139.073,157.121,138.573,157.351Z"    transform="translate(-23.449 -25.821)" fill="#2ecc71"></path>  <path    d="M119.784,139.2c-9.25,7.28-19.38,14.679-24.63,14.679-6.43,0-21.92-10.25-27.451-14.25l2.182-.474c6.279,4.38,20.033,13.153,25.254,13.153,4.85,0,16.852-9.1,22.561-13.566C118.509,138.933,118.922,139.021,119.784,139.2Z"    transform="translate(-23.449 -25.821)" fill="#e74c3c"></path></g><g>  <path    d="M66.758,92.468c.18,1.871.749,3.351-1.24,3.52S62.83,94.775,62.65,92.9s.236-3.523,2.221-3.69S66.581,90.6,66.758,92.468Z"    transform="translate(-23.449 -25.821)"    fill="#2c3e50"  ></path>  <path    d="M123.444,92.468c-.179,1.871-.749,3.351,1.24,3.52s2.69-1.213,2.869-3.085-.236-3.523-2.222-3.69S123.623,90.6,123.444,92.468Z"    transform="translate(-23.449 -25.821)"    fill="#2c3e50"  ></path>  <path    d="M95.144,163.351h-.991v-9.435c-.005-4.948-4.21-8.315-9.534-12.577-4.45-3.562-9.494-7.6-13.4-13.6-7.608-11.71-7.363-22.561-6.46-32.671l.987.087c-.887,9.938-1.13,20.6,6.305,32.043,3.815,5.871,8.792,9.855,13.184,13.371,5.313,4.252,9.9,7.926,9.905,13.35Z"    transform="translate(-23.449 -25.821)"    fill="#2c3e50"  ></path>  <path    d="M96.166,163.351h-.991v-9.435c0-5.426,4.591-9.1,9.9-13.352,4.393-3.515,9.37-7.5,13.185-13.37,7.429-11.436,7.188-22.1,6.306-32.043l.987-.087c.9,10.115,1.14,20.969-6.461,32.67-3.9,6.005-8.946,10.042-13.4,13.6-5.324,4.263-9.53,7.629-9.533,12.578Z"    transform="translate(-23.449 -25.821)"    fill="#2c3e50"  ></path></g><g>  <path    fill="#ef843b"    d="M99.744,101.563a.271.271,0,0,0,.1-.314.237.237,0,0,0-.268-.161,25.286,25.286,0,0,1-8.474.185.243.243,0,0,0-.26.173.272.272,0,0,0,.1.307,11.793,11.793,0,0,0,4.2,1.612C96.067,103.606,98.49,102.388,99.744,101.563Z"    transform="translate(-23.449 -25.821)"  ></path></g></svg>