<svg width="64" height="64" version="1.1" xmlns="http://www.w3.org/2000/svg" xmlns:xlink="http://www.w3.org/1999/xlink" viewBox="0 0 142.841 137.643"><g>  <path d="M134.622,145.559c-1.051-3.5-5.139-4.2-5.139-4.2s-16.613-3.269-18.316-4.2c-.329-.182-.689-.4-1.054-.645-1.534-1-3.23-2.452-3.734-3.794-.392-1.046-.383-4.563-.322-7.029-1.482-.831-3.068-1.7-3.213-1.7-.252,0-17.6,2.255-19.655,2.595,0,.071,0,.146,0,.218a25.242,25.242,0,0,1-.345,5.92c-.624,1.664-3.087,3.5-4.788,4.439s-18.315,4.2-18.315,4.2-4.089.7-5.14,4.2-4.359,11.689-3.854,11.912c17.172,7.563,71.172,7.563,87.727,0C138.979,157.241,135.673,149.064,134.622,145.559Z"        transform="translate(-23.449 -25.821)"        fill="#a96c4f"></path>  <path d="M109.476,136.07a7.211,7.211,0,0,1-3.1-3.358c-.392-1.046-.383-4.563-.322-7.029-1.482-.831-3.068-1.7-3.213-1.7-.252,0-17.6.536-19.653.877,0,.07,0,1.864,0,1.936,1.823,3.876,15.2,10.2,26.284,9.278Z"        transform="translate(-23.449 -25.821)"        fill="#a0664b"></path>  <path d="M129.955,83.1c-1.471-2.038-2.984-1.471-4.22-.191.582-3.611.956-6.221.976-6.8.645-17.562-18.264-27.71-31.783-27.674h-.14c-15.935-.043-31.522,10.119-30.877,27.674.023.636.4,3.725.979,7.909-1.349-1.919-3.267-3.486-5.12-.918-3.358,4.651,1.979,14.932,2.708,15.633C63.8,100,67.349,100,67.349,100V100c1.217,7.094,2.52,13.393,3.477,14.948,2.572,4.18,12.665,13.623,23.962,14.116a.678.678,0,0,0,.07.007c.022,0,.047,0,.07,0v-.012c11.3-.493,21.393-9.936,23.964-14.116.957-1.556,2.409-7.861,3.8-14.958,1.115-.057,3.549-.289,4.552-1.256C127.976,98.029,133.314,87.748,129.955,83.1Z"        transform="translate(-23.449 -25.821)"        fill="#a96c4f"></path></g>
<g>
<linearGradient
  id="gradientId"
  x1="72.34"
  y1="94.276"
  x2="79.169"
  y2="94.276"
  gradientTransform="matrix(0.999, -0.039, 0.039, 0.999, 1.102, -0.852)"
  gradientUnits="userSpaceOnUse"
>
  <stop offset="0" stop-color="#859bac"></stop>
  <stop offset="1" stop-color="#859bac"></stop>
</linearGradient>
<g>  <path    fill="#ffffff"    d="M85.831,89.846a.825.825,0,0,1,0,1.128c-.907.969-2.976,2.848-5.384,2.848-2.437,0-4.269-2.044-5.03-3.061a.88.88,0,0,1,.036-1.1A7,7,0,0,1,80.447,87C82.855,87,84.923,88.876,85.831,89.846Z"    transform="translate(-23.449 -25.821)"  ></path>  <path    fill="gradientId"    d="M77.042,90.538A3.416,3.416,0,1,0,80.32,87.1,3.372,3.372,0,0,0,77.042,90.538Z"    transform="translate(-23.449 -25.821)"  ></path>  <path    fill="#1d1d1b"    d="M80.207,88.558A2.009,2.009,0,1,1,78.524,90.8,1.971,1.971,0,0,1,80.207,88.558Z"    transform="translate(-23.449 -25.821)"  ></path>  <path    fill="#ffffff"    d="M79.262,88.284a.983.983,0,1,1-.866,1.1A.993.993,0,0,1,79.262,88.284Z"    transform="translate(-23.449 -25.821)"  ></path>  <path    fill="#ffffff"    d="M115.374,89.882a.827.827,0,0,1,0,1.13c-.907.969-2.976,2.848-5.384,2.848-2.437,0-4.269-2.045-5.03-3.062A.881.881,0,0,1,105,89.7a7,7,0,0,1,4.994-2.665C112.4,87.034,114.466,88.912,115.374,89.882Z"    transform="translate(-23.449 -25.821)"  ></path>  <path    fill="gradientId"    d="M106.585,90.575a3.416,3.416,0,1,0,3.278-3.434A3.372,3.372,0,0,0,106.585,90.575Z"    transform="translate(-23.449 -25.821)"  ></path>  <path    fill="#1d1d1b"    d="M109.75,88.594a2.01,2.01,0,1,1-1.684,2.237A1.974,1.974,0,0,1,109.75,88.594Z"    transform="translate(-23.449 -25.821)"  ></path>  <path    fill="#ffffff"    d="M108.805,88.321a.983.983,0,1,1-.866,1.1A.992.992,0,0,1,108.805,88.321Z"    transform="translate(-23.449 -25.821)"  ></path></g>
</g> 
        
<g>
  
  <path
    d="M84.709,84.234a1.028,1.028,0,0,1-.4-.081c-3.463-1.446-7.742-.8-9.064-.054a1.035,1.035,0,1,1-1.022-1.8c1.908-1.083,6.883-1.726,10.884-.056a1.036,1.036,0,0,1-.4,1.992Z"
    transform="translate(-23.449 -25.821)"
    fill="#4e433f"
  ></path>
  <path
    d="M105.459,84.234a1.036,1.036,0,0,1-.4-1.992c4-1.67,8.976-1.028,10.886.056a1.035,1.035,0,1,1-1.021,1.8c-1.323-.75-5.605-1.393-9.067.055A1.037,1.037,0,0,1,105.459,84.234Z"
    transform="translate(-23.449 -25.821)"
    fill="#4e433f"
  ></path>
</g>
            <g id="b2d25f4f-be7e-49d4-aedc-a648cb9119cb" data-name="Olive Formal">  <path    d="M138.463,157.534c-6.051,2.76-17.11,4.521-29.54,5.26a241.359,241.359,0,0,1-28.21,0c-12.49-.739-23.69-2.5-29.97-5.26-.51-.22,2.8-8.4,3.85-11.91s5.14-4.2,5.14-4.2,10.83-2.14,15.9-3.449a18.152,18.152,0,0,0,2.241-.681c.029-.01.049-.021.07-.03.039-.02.069-.03.1-.05a1.912,1.912,0,0,0,.2-.12c5.631,3.509,10.74,6.12,16.81,6.12,5.62,0,11.05-2.521,16.481-5.84.209.08.479.17.809.26.63.19,1.46.4,2.41.63,5.4,1.32,14.719,3.16,14.719,3.16s4.09.7,5.141,4.2S138.963,157.305,138.463,157.534Z"    transform="translate(-23.449 -25.821)" fill="#7f8c8d"></path>  <polygon points="67.85 112.759 75.697 112.759 77.729 115.977 65.815 115.977 67.85 112.759" fill="#e2e2e2"></polygon>  <path d="M91.614,148.811l-3.486-7.819H102.1l-3.489,7.819A3.985,3.985,0,0,1,91.614,148.811Z"        transform="translate(-23.449 -25.821)" fill="#c0392b"></path>  <path d="M101.294,163.114c-4.1.12-8.26.12-12.371.02l2.691-11.46c2.25-2.81,4.869-2.54,6.989,0Z"        transform="translate(-23.449 -25.821)" fill="#c0392b"></path>  <path    d="M81.728,128.773a18.964,18.964,0,0,0,10.38,9.637c-.537.826-5.771,6.631-7.5,13.481-3.482-3.3-10.3-11.386-10.3-13.311C75.377,135,79.316,130.148,81.728,128.773Z"    transform="translate(-23.449 -25.821)" fill="#fff"></path>  <path    d="M108.613,128.773a16.078,16.078,0,0,1-10.356,9.637,31.58,31.58,0,0,1,7.5,13.481c3.481-3.3,10.547-11.386,10.547-13.311C115.236,135,111.025,130.148,108.613,128.773Z"    transform="translate(-23.449 -25.821)" fill="#fff"></path></g><g id="a333023a-94ec-46ce-9921-940f318d7b2a" data-name="Vrstva 36">  <path d="M119.349,110.207l-.565.008a6.434,6.434,0,0,1-.016.869c-.288,3.486-4.908,5.124-10.043,4.615a5.637,5.637,0,0,1-9.762.5h0a25.627,25.627,0,0,1-3.675.454,25.644,25.644,0,0,1-3.675-.454h0a5.578,5.578,0,0,1-9.695-.428c-5.135.509-9.822-1.2-10.109-4.682a6.274,6.274,0,0,1-.016-.869l-.566-.008c-.04,1.905-.032,4.232.087,6.854.327,7.373.933,8.3,2.128,9.429,3.947,3.74,17.815,12.093,21.845,12.093s17.9-8.353,21.845-12.093c1.195-1.124,1.8-2.056,2.128-9.429C119.381,114.439,119.389,112.112,119.349,110.207Z"        transform="translate(-23.449 -25.821)"        fill="#a56b46"></path>  <path d="M75.6,115.133c-2.147-.77-3.628-2.14-3.785-4.049a6.274,6.274,0,0,1-.016-.869l-.566-.008c-.04,1.905-.032,4.232.087,6.854.327,7.373.933,8.3,2.128,9.429,3.947,3.74,17.815,12.093,21.845,12.093a12.709,12.709,0,0,0,4.216-1.219,40.364,40.364,0,0,1-4.6-1.68C86.647,131.555,75.427,125.044,75.6,115.133Z"        transform="translate(-23.449 -25.821)"        fill="#ad7049"></path>  <path d="M119.349,110.207l-.565.008a6.434,6.434,0,0,1-.016.869,4.324,4.324,0,0,1-2.384,3.391c-.79,10.617-9.343,17.108-18.287,22.423.469.158.936.325,1.408.466,5.785-2.455,14.609-8.013,17.629-10.874,1.195-1.124,1.8-2.056,2.128-9.429C119.381,114.439,119.389,112.112,119.349,110.207Z"        transform="translate(-23.449 -25.821)"        fill="#9c6542"></path>  <path d="M117.035,107.761s1.814,2.526-1.662,3.658a4.248,4.248,0,0,1-2.185.111c-2.726-.518-5.348-3.243-7.476-4.766-2.662-1.9-7.948-4.2-10.4-1.734-2.458-2.468-7.743-.168-10.406,1.734-2.127,1.523-4.749,4.248-7.475,4.766a4.248,4.248,0,0,1-2.185-.111c-3.477-1.132-1.662-3.658-1.662-3.658-2.717.717-3.154,6.7,3.533,7.85.114.024.228.04.352.056,7.893,1.115,15.872-3.28,17.827-4.344,0,0,9.964,5.459,17.858,4.344.123-.016.238-.032.352-.056C120.189,114.463,119.752,108.478,117.035,107.761Z"        transform="translate(-23.449 -25.821)"        fill="#b4764e"></path></g><g>  <path    fill="#ef843b"    d="M99.744,101.563a.271.271,0,0,0,.1-.314.237.237,0,0,0-.268-.161,25.286,25.286,0,0,1-8.474.185.243.243,0,0,0-.26.173.272.272,0,0,0,.1.307,11.793,11.793,0,0,0,4.2,1.612C96.067,103.606,98.49,102.388,99.744,101.563Z"    transform="translate(-23.449 -25.821)"  ></path></g></svg>