<svg width="64" height="64" version="1.1" xmlns="http://www.w3.org/2000/svg" xmlns:xlink="http://www.w3.org/1999/xlink" viewBox="0 0 142.841 137.643"><g>  <path    data-name="Neck"    fill="#fbd2b4"    d="M51.969,156.337c-.235-.111-.024-.746.342-1.59.474-1.092,1.324-2.683,2.368-4.67a20.584,20.584,0,0,1,4.25-5.439c3.219-2.981,9.759-5.1,13.36-5.99a70.528,70.528,0,0,0,9.08-2.58c1.85-1.021,4.52-3.021,5.2-4.831.369-.97.41-4.929.38-7.44v-2c2.23-.38,10.97-1.06,11.24-1.06.16,0,1.88.95,3.49,1.85-.06,2.68-.07,7.51.35,8.65.55,1.459,2.4,3.04,4.06,4.13.03,0,.81.51,1.15.7,1.12.619,6.14,1.729,9.9,2.5,2.44.509,9.49,2.759,12.7,5.119a10.013,10.013,0,0,1,1.61,1.43,45.323,45.323,0,0,1,6.42,10.443C132.369,162.814,76.869,168.167,51.969,156.337Z"    transform="translate(-23.449 -25.821)"  ></path>  <path    data-name="Shadow"    fill="#f7ad76"    d="M106.406,135.556c-2.76-1.8-4.086-3.551-4.373-4.315-.426-1.139-.416-5.973-.35-8.655-1.611-.9-3.335-1.851-3.492-1.851-.275,0-9,1.309-11.232,1.68,0,.236-.007,1.766-.006,1.844C89.334,129.384,97.9,134.384,106.406,135.556Z"    transform="translate(-23.449 -25.821)"  ></path>  <path    data-name="Top"    fill="#fbd2b4"    d="M127.068,85.11a4.379,4.379,0,0,0-2.159-.314c.324-10.527-1.184-37.286-30.039-36.14C66.013,47.51,64.507,74.269,64.832,84.8a4.391,4.391,0,0,0-2.162.314c-3,1.278-2.988,5.745-1.228,9.979,1.539,3.7,3.906,7.639,6.481,7.718.513,1.984,1.009,3.762,1.41,5.143a17.153,17.153,0,0,0,4.5,7.6c4.577,4.423,10.99,7.48,15.53,9.259a15.12,15.12,0,0,0,11.019,0c4.541-1.779,10.956-4.837,15.534-9.261a17.164,17.164,0,0,0,4.5-7.6c.4-1.381.9-3.159,1.41-5.143,2.573-.08,4.94-4.019,6.478-7.718C130.057,90.855,130.064,86.388,127.068,85.11Z"    transform="translate(-23.449 -25.821)"  ></path></g>
<g>
<linearGradient
  id="gradientId"
  x1="72.34"
  y1="94.276"
  x2="79.169"
  y2="94.276"
  gradientTransform="matrix(0.999, -0.039, 0.039, 0.999, 1.102, -0.852)"
  gradientUnits="userSpaceOnUse"
>
  <stop offset="0" stop-color="#335718"></stop>
  <stop offset="1" stop-color="#335718"></stop>
</linearGradient>
<g>  <path    fill="#ffffff"    d="M85.831,89.846a.825.825,0,0,1,0,1.128c-.907.969-2.976,2.848-5.384,2.848-2.437,0-4.269-2.044-5.03-3.061a.88.88,0,0,1,.036-1.1A7,7,0,0,1,80.447,87C82.855,87,84.923,88.876,85.831,89.846Z"    transform="translate(-23.449 -25.821)"  ></path>  <path    fill="gradientId"    d="M77.042,90.538A3.416,3.416,0,1,0,80.32,87.1,3.372,3.372,0,0,0,77.042,90.538Z"    transform="translate(-23.449 -25.821)"  ></path>  <path    fill="#1d1d1b"    d="M80.207,88.558A2.009,2.009,0,1,1,78.524,90.8,1.971,1.971,0,0,1,80.207,88.558Z"    transform="translate(-23.449 -25.821)"  ></path>  <path    fill="#ffffff"    d="M79.262,88.284a.983.983,0,1,1-.866,1.1A.993.993,0,0,1,79.262,88.284Z"    transform="translate(-23.449 -25.821)"  ></path>  <path    fill="#875026"    d="M105.736,92.973a1,1,0,0,1-.9-1.444,6.205,6.205,0,0,1,10.546-.287,1,1,0,0,1-1.728,1,4,4,0,0,0-3.467-1.8,3.907,3.907,0,0,0-3.559,1.969A1,1,0,0,1,105.736,92.973Z"    transform="translate(-23.449 -25.821)"  ></path></g>
</g> 
        
<g>
  <g data-name="Hair__TypeC">  <path    fill="#090806"    d="M106.133,38.965c-6.242-2.072-21.145-2.211-27.517,4.734a7.717,7.717,0,0,1,3.433-4.464c-3.817.336-8.5,3.58-9.064,7.425-4.773-.4-8.847,3.02-9.781,5.428a10.731,10.731,0,0,1,5.751-1.92c-14.585,9.156-9.369,37.1-.608,46.846-9.156-26.281,9.28-25.434,8.333-39.1C78.317,66.547,91,76.117,101.512,75.58c-5.729-2.334-10.254-10.367-8.531-15.7-.417,2.686,2.91,13.031,18.15,16.16,4.213.866,11.223,3.3,11.215,7.6,1.976-4.469-1.668-18.209-9.719-24.723,16.553,7.5,12.473,30.951,10.805,37.121,2.963-4.695,4.318-9.029,5.924-14.343C130.611,77.52,136.678,49.106,106.133,38.965Z"    transform="translate(-23.449 -25.821)"  ></path></g>
  <path
    d="M84.709,84.234a1.028,1.028,0,0,1-.4-.081c-3.463-1.446-7.742-.8-9.064-.054a1.035,1.035,0,1,1-1.022-1.8c1.908-1.083,6.883-1.726,10.884-.056a1.036,1.036,0,0,1-.4,1.992Z"
    transform="translate(-23.449 -25.821)"
    fill="#090806"
  ></path>
  <path
    d="M105.459,84.234a1.036,1.036,0,0,1-.4-1.992c4-1.67,8.976-1.028,10.886.056a1.035,1.035,0,1,1-1.021,1.8c-1.323-.75-5.605-1.393-9.067.055A1.037,1.037,0,0,1,105.459,84.234Z"
    transform="translate(-23.449 -25.821)"
    fill="#090806"
  ></path>
</g>
            <g>  <path    fill="#7f8c8d"    d="M123.722,81.724c-.022,0-20.038-4.586-25.347,1.889a11.588,11.588,0,0,0-.647,2.076H91.9a11.546,11.546,0,0,0-.646-2.076c-5.31-6.475-25.325-1.884-25.346-1.889,0,0-.06,3.25.06,4.334.166,1.486,2.489,3.492,2.635,4.711.721,5.9,4.668,10.251,12.98,10.045,8.329-.433,10.275-6.462,10.619-10.255a16.138,16.138,0,0,0,.032-2.472,7.091,7.091,0,0,1,2.564-.462h.036a7.087,7.087,0,0,1,2.564.462,16.4,16.4,0,0,0,.033,2.472c.343,3.793,2.289,9.822,10.619,10.255,8.312.206,12.26-4.143,12.98-10.045.147-1.219,2.471-3.225,2.635-4.711C123.78,84.974,123.722,81.724,123.722,81.724ZM90.3,90.857c-.431,5.287-3.675,8.383-8.925,8.637-.532.028-1.05.031-1.542.013-8.271-.018-9.686-7.253-9.85-11.834a4.886,4.886,0,0,1,4.409-5.124c1.517-.149,3.225-.149,5.2-.149,6.181,0,8.871,1.476,9.588,2.657A10.512,10.512,0,0,1,90.3,90.857Zm19.488,8.65c-.492.018-1.01.015-1.543-.013-5.248-.254-8.492-3.35-8.922-8.637a10.486,10.486,0,0,1,1.119-5.8c.715-1.181,3.406-2.657,9.588-2.657,1.975,0,3.682,0,5.2.149a4.887,4.887,0,0,1,4.41,5.124C119.477,92.254,118.061,99.489,109.79,99.507Z"    transform="translate(-23.449 -25.821)"  ></path></g><g>  <path    d="M138.244,155.928c-.129-1.043-2.111-5.137-3.32-7.245-1.115-1.951-5.307-9-13.619-10.638-6.709,7.551-17.332,10.654-26.6,10.663-9.266-.009-19.893-3.112-26.6-10.663-8.312,1.639-12.5,8.687-13.618,10.638-1.209,2.108-3.191,6.2-3.318,7.245h.039a.229.229,0,0,0-.008.041c0,2.786,20.417,7.068,43.107,7.068l.4,0,.4,0c22.69,0,43.108-4.282,43.108-7.068a.229.229,0,0,0-.008-.041Z"    transform="translate(-23.449 -25.821)"    fill="#c0392b"  ></path>  <path    d="M94.707,150.226c-10.91-.011-21.059-4-27.309-10.7-.144-.155-.955-.863-1.1-1.021l3.629-.722c.224.252-.237-.243,0,0,5.707,5.9,14.879,9.4,24.777,9.409,9.936-.008,19.146-3.54,24.848-9.486.209-.219-.2.227,0,0l3.441.764c-.137.154-.83.891-.971,1.043C115.777,146.221,105.621,150.215,94.707,150.226Z"    transform="translate(-23.449 -25.821)"    fill="#d35400"  ></path></g><g>  <path    fill="#ef843b"    d="M99.744,101.563a.271.271,0,0,0,.1-.314.237.237,0,0,0-.268-.161,25.286,25.286,0,0,1-8.474.185.243.243,0,0,0-.26.173.272.272,0,0,0,.1.307,11.793,11.793,0,0,0,4.2,1.612C96.067,103.606,98.49,102.388,99.744,101.563Z"    transform="translate(-23.449 -25.821)"  ></path></g></svg>