<svg xmlns="http://www.w3.org/2000/svg" xmlns:xlink="http://www.w3.org/1999/xlink" style="isolation:isolate" viewBox="0 0 20 20" version="1.1" shape-rendering="crispEdges"><path d="M8 15v1H4v1H3v3h14v-3h-1v-1h-4v-1h3v-1h1v-1h1v-3h1V7h-1V4h-1V3h-1V2H5v1H4v1H3v3H2v3h1v3h1v1h1v1h3z" fill="#e0b687"/><path d="M5 15v-1H4v-1H3v-3H2V7h1V4h1V3h1V2h10v1h1v1h1v3h1v3h-1v3h-1v1h-1v1H5z" fill="#FFF" fill-opacity=".1"/><path d="M5 7h3v2H5V7zm7 0h3v2h-3V7z" fill="#FFF"/><path d="M5 8h2v1H5V8zm7 0h2v1h-2V8z" fill="#588387"/><path d="M6 5h2v1h1v1H8V6H6V5zm8 0h-2v1h-1v1h1V6h2V5z" fill-rule="evenodd" fill="#9b8e8c"/><path d="M1 9v3h3V9H1zm1 1v1h1v-1H2zm14-1v3h3V9h-3zm1 1v1h1v-1h-1z" fill-rule="evenodd" fill="#ffd700"/><path d="M8 12v1h1v1h2v-1h1v-1h-1v-1H9v1H8z" fill="#f9245b"/><path d="M9 12v1h2v-1H9z" fill="#FFF" fill-opacity=".2"/><path d="M3 20v-3h1v-1h12v1h1v3H3z" fill="#ff6f69"/><path d="M2 9v6h2v-4H3V9H2zm0-2h2V4h12v3h2V3h-1V2H3v1H2v4zm15 2h1v6h-2v-4h1V9z" fill-rule="evenodd" fill="#b4a5a3"/></svg>