<svg width="64" height="64" viewBox="0 0 24 24" xmlns="http://www.w3.org/2000/svg"><defs><clipPath id="clip-a"><rect width="13" height="24" x="0" y="0"></rect></clipPath><clipPath id="clip-b"><rect width="12" height="24" x="12" y="0"></rect></clipPath></defs><g style="fill: #c0ca33" clip-path="url(#clip-a)"><path d="M 7,2 6,6 H 2 l 2,8 -2,8 H 22 L 20,14 22,6 H 18 L 17,2 Z"></path></g><g style="fill: #afb42b" clip-path="url(#clip-b)"><path d="M 7,2 6,6 H 2 l 2,8 -2,8 H 22 L 20,14 22,6 H 18 L 17,2 Z"></path></g><g style="fill: #dce775" clip-path="url(#clip-a)"><rect width="6" height="1" x="9.7279215" y="0.20710692" transform="rotate(45)"></rect><rect transform="rotate(135)" y="-13.227921" x="-2.2928932" height="1" width="6"></rect><rect transform="rotate(45)" y="-4.7426405" x="14.67767" height="1" width="6"></rect><rect width="6" height="1" x="-7.2426405" y="-18.17767" transform="rotate(135)"></rect></g><g style="fill: #d4e157" clip-path="url(#clip-b)"><rect width="6" height="1" x="9.7279215" y="0.20710692" transform="rotate(45)"></rect><rect transform="rotate(135)" y="-13.227921" x="-2.2928932" height="1" width="6"></rect><rect transform="rotate(45)" y="-4.7426405" x="14.67767" height="1" width="6"></rect><rect width="6" height="1" x="-7.2426405" y="-18.17767" transform="rotate(135)"></rect></g><g style="fill: #4dd0e1" clip-path="url(#clip-a)"><path d="M 7.5,15 C 7.223,15 7,15.223 7,15.5 V 16 H 6.5 C 6.223,16 6,16.223 6,16.5 6,16.777 6.223,17 6.5,17 H 7 v 0.5 C 7,17.777 7.223,18 7.5,18 7.777,18 8,17.777 8,17.5 V 17 h 2 v 0.5 c 0,0.277 0.223,0.5 0.5,0.5 0.277,0 0.5,-0.223 0.5,-0.5 V 17 h 2 v 0.5 c 0,0.277 0.223,0.5 0.5,0.5 0.277,0 0.5,-0.223 0.5,-0.5 V 17 h 2 v 0.5 c 0,0.277 0.223,0.5 0.5,0.5 0.277,0 0.5,-0.223 0.5,-0.5 V 17 h 0.5 C 17.777,17 18,16.777 18,16.5 18,16.223 17.777,16 17.5,16 H 17 V 15.5 C 17,15.223 16.777,15 16.5,15 16.223,15 16,15.223 16,15.5 V 16 H 14 V 15.5 C 14,15.223 13.777,15 13.5,15 13.223,15 13,15.223 13,15.5 V 16 H 11 V 15.5 C 11,15.223 10.777,15 10.5,15 10.223,15 10,15.223 10,15.5 V 16 H 8 V 15.5 C 8,15.223 7.777,15 7.5,15 Z"></path></g><g style="fill: #26c6da" clip-path="url(#clip-b)"><path d="M 7.5,15 C 7.223,15 7,15.223 7,15.5 V 16 H 6.5 C 6.223,16 6,16.223 6,16.5 6,16.777 6.223,17 6.5,17 H 7 v 0.5 C 7,17.777 7.223,18 7.5,18 7.777,18 8,17.777 8,17.5 V 17 h 2 v 0.5 c 0,0.277 0.223,0.5 0.5,0.5 0.277,0 0.5,-0.223 0.5,-0.5 V 17 h 2 v 0.5 c 0,0.277 0.223,0.5 0.5,0.5 0.277,0 0.5,-0.223 0.5,-0.5 V 17 h 2 v 0.5 c 0,0.277 0.223,0.5 0.5,0.5 0.277,0 0.5,-0.223 0.5,-0.5 V 17 h 0.5 C 17.777,17 18,16.777 18,16.5 18,16.223 17.777,16 17.5,16 H 17 V 15.5 C 17,15.223 16.777,15 16.5,15 16.223,15 16,15.223 16,15.5 V 16 H 14 V 15.5 C 14,15.223 13.777,15 13.5,15 13.223,15 13,15.223 13,15.5 V 16 H 11 V 15.5 C 11,15.223 10.777,15 10.5,15 10.223,15 10,15.223 10,15.5 V 16 H 8 V 15.5 C 8,15.223 7.777,15 7.5,15 Z"></path></g></svg>