<svg width="64" height="64" xmlns="http://www.w3.org/2000/svg" xmlns:xlink="http://www.w3.org/1999/xlink" style="isolation:isolate" viewBox="0 0 20 20" version="1.1" shape-rendering="crispEdges"><path d="M8 15v1H4v1H3v3h14v-3h-1v-1h-4v-1h3v-1h1v-1h1v-3h1V7h-1V4h-1V3h-1V2H5v1H4v1H3v3H2v3h1v3h1v1h1v1h3z" fill="#eac393"/><path d="M5 15v-1H4v-1H3v-3H2V7h1V4h1V3h1V2h10v1h1v1h1v3h1v3h-1v3h-1v1h-1v1H5z" fill="#FFF" fill-opacity=".1"/><path d="M5 8h2v1H5V8zm7 0h2v1h-2V8z" fill="#FFF"/><path d="M7 8h1v1H7V8zm7 0h1v1h-1V8z" fill="#647b90"/><path d="M5 6h2v1H5V6zm8 0h2v1h-2V6z" fill-rule="evenodd" fill="#000000"/><path d="M8 13h4v1H8v-1z" fill="#d0a390"/><path d="M3 20v-3h1v-1h4v1h4v-1h4v1h1v3H3z" fill="#03396c"/><path d="M2 7h1V5h2V4h1V3h1v1h2V3h4V2h1v1h1v1h1v1h1v2h1V6h1V4h-1V3h-1V2h-1V1h-1V0h-1v1h-2V0h-1v1H9V0H8v1H7V0H5v1H4v1H2v5z" fill="#090806"/></svg>